<?xml version="1.0" encoding="utf-8"?>
<svg version="1.1" id="Layer_1" xmlns="http://www.w3.org/2000/svg" xmlns:xlink="http://www.w3.org/1999/xlink" x="0px" y="0px" width="32" height="32"
	 viewBox="0 0 32 32" style="enable-background:new 0 0 32 32;" xml:space="preserve">
<g>
	<polygon id="fill" fill="#FFFFFF" points="4.6,29 9.7,26.5 21.6,14.7 16.8,10.9 5.2,22.5 2.8,27.1 0.4,29.9 1.8,31.6 	"/>
	<path d="M25.3,11.5l-4.9-4.9l-2.3-2.3c-0.3-0.3-0.6-0.3-0.9,0l-3.6,3.6c-0.3,0.3-0.3,0.6,0,0.9L16,11L5,22c-0.1,0-0.1,0-0.1,0.1
		l-3.2,5.4c-0.1,0.1-0.3,0.3-0.4,0.4C0.6,28.6,0,29.2,0,30c0,0.4,0.3,0.9,0.7,1.4s0.9,0.7,1.4,0.6c0.8,0,1.4-0.6,2.1-1.3
		c0.1-0.1,0.3-0.3,0.4-0.4l5.4-3.1c0.1-0.1,0.1-0.1,0.1-0.1l10.9-11l2.3,2.3c0.3,0.3,0.6,0.3,0.9,0l3.6-3.6c0.3-0.3,0.3-0.6,0-0.9
		L25.3,11.5z M3.1,29.8c-0.4,0.4-0.9,0.9-1.2,0.9c-0.2,0-0.4-0.2-0.5-0.3c-0.2-0.2-0.3-0.4-0.3-0.5c0-0.3,0.4-0.8,0.9-1.1
		c0.2-0.1,0.4-0.3,0.5-0.5c0,0,0-0.1,0.1-0.1l1,1c0,0-0.1,0-0.1,0.1C3.4,29.5,3.3,29.6,3.1,29.8z M9.2,26.1l-4.3,2.5l-1.5-1.5
		L6,22.8l10.9-10.9l3.3,3.3L9.2,26.1z"/>
	<path d="M31,1.8l-0.8-0.7c-0.6-0.6-1.3-0.9-2.1-0.9c-0.8,0-1.6,0.3-2.1,0.9l-4.7,4.7l4.9,4.9L31,6c0.6-0.6,0.9-1.3,0.9-2.1
		C31.8,3.1,31.5,2.3,31,1.8z"/>
</g>
</svg>
