<?xml version="1.0" encoding="utf-8"?>
<!-- Generator: Adobe Illustrator 21.0.0, SVG Export Plug-In . SVG Version: 6.00 Build 0)  -->
<svg version="1.1" id="Layer_1" xmlns="http://www.w3.org/2000/svg" xmlns:xlink="http://www.w3.org/1999/xlink" x="0px" y="0px"
	 viewBox="0 0 64 64" style="enable-background:new 0 0 64 64;" xml:space="preserve">
<style type="text/css">
	.st0{fill:#FFFFFF;}
</style>
<path class="st0" d="M46.2,19.5C46.2,19.5,46.2,19.5,46.2,19.5l-0.1-0.1H46h-0.1c-4.9-2-7.8,0.5-7.9,0.6c-0.1,0.1-0.2,0.3-0.2,0.4
	s0.1,0.4,0.2,0.4c0.7,0.5,1.7,6.4,2,8.1c-1.7-0.4-3.6-0.6-5.6-0.7v-7.6c0.1-0.1,0.1-0.1,0.2-0.1c0.2-0.1,0.4-0.3,0.7-0.5
	c0.7-0.7,1.2-1.8,1-3.9c-0.2-2.8,0.8-6.4,1.4-8.1C38,7.2,38.2,7,37.9,6.7c0-0.2-0.2-0.2-0.4-0.1c-3,1.5-5.2,3-6.8,4.5
	c-3.1,3.1-2.7,5.7-2.1,7.1c0.4,1,1.2,1.9,2,2.4l0,0c0,0.1,0,0.1,0,0.1v7.6c-1.8,0.1-3.6,0.2-5.2,0.5c0.1-0.2,0.2-0.4,0.2-0.6
	c0.3-0.9,0.2-2.2-0.9-4c-1.5-2.5-2.3-6.2-2.5-8.1c-0.1-1.2-0.1-1.4-0.5-1.5c-0.1-0.1-0.4,0-0.4,0.1c-2,2.7-3.4,5.2-4.1,7.3
	c-1.4,4.3,0.3,6.5,1.4,7.4c0.5,0.4,1.2,0.7,1.7,1c-0.5,0.4-0.8,0.9-0.8,1.5c0,0.4,0.1,0.7,0.4,0.9c0.1,0.2,0.4,0.3,0.7,0.2h0.1
	c0.2-0.1,0.4-0.3,0.4-0.5c0.1-0.3,0.4-0.6,1-0.9l2,3.7c-2.3-0.5-3.9-1.2-4.4-1.8c-0.1-0.1-0.2-0.1-0.4-0.1c-0.1,0.1-0.2,0.1-0.2,0.3
	v19.2c0,2.5,6.8,4.4,13.2,4.4s13.2-1.3,13.2-3.8V33.9c0-0.1-0.1-0.3-0.2-0.3c-0.1-0.1-0.3,0-0.4,0.1c-0.3,0.4-0.9,0.7-1.7,1.1
	c-0.4,0.2-1,0.4-1.6,0.5l1.4-3.3c0.4,0.2,0.5,0.4,0.6,0.7c0,0.1,0.1,0.2,0.1,0.3s0.2,0.2,0.3,0.2c0.1,0,0.1,0,0.2,0
	c0.2,0,0.4-0.1,0.5-0.3c0.2-0.3,0.4-0.7,0.4-0.9c0-0.6-0.4-1.2-1-1.6c1.6-1.1,6.2-4.4,7.1-4.2c0.1,0,0.4,0,0.5-0.1s0.2-0.3,0.1-0.5
	C51.5,25.4,51,21.6,46.2,19.5z M39.5,30.9L37.4,36c-0.9,0.1-1.9,0.2-2.9,0.2V35v-1v-3.8C36.5,30.4,38.2,30.6,39.5,30.9z M30.5,30.2
	V34v1v1.3c-0.7,0-1.2-0.1-1.8-0.1l-2.8-5.5C27.2,30.4,28.8,30.3,30.5,30.2z M42.4,39.2c0,0.1,0,0.1,0,0.1V51c0,1.5-3.6,2-6.8,2.2
	c-3.2,0.1-6.8-0.1-6.8-1.7V40.3c1.2,0.1,2.6,0.2,4.1,0.2C37.1,40.5,40.5,39.9,42.4,39.2z"/>
</svg>
