<?xml version="1.0" encoding="utf-8"?>
<!-- Generator: Adobe Illustrator 21.0.0, SVG Export Plug-In . SVG Version: 6.00 Build 0)  -->
<svg version="1.1" id="Layer_1" xmlns="http://www.w3.org/2000/svg" xmlns:xlink="http://www.w3.org/1999/xlink" x="0px" y="0px"
	 viewBox="0 0 64 64" style="enable-background:new 0 0 64 64;" xml:space="preserve">
<style type="text/css">
	.st0{fill:#FFFFFF;}
</style>
<g>
	<path class="st0" d="M37.5,33.6c-0.3-0.8-0.7-1.5-1.2-2.1c-0.8-0.8-1.7-1.4-2.7-1.9c-0.6-0.3-1.2-0.4-1.7-0.6
		C31.3,29,30.7,29,30.1,29c-1.9,0-4.4,1-7.2,4.2c-3.9,4.5-10.7,8.3-14.1,9.9c-2.2,1-2.6,1.2-2.6,1.9c0,0.4,0.3,0.7,0.6,0.8
		c6.6,2.2,12.2,3.4,16.8,3.4c9.3,0,12.5-4.6,13.6-7.3c0.9-2.1,1-4.5,0.7-6.5C37.9,34.8,37.8,34.2,37.5,33.6z M28,35.1
		c-1.7,6.4-13.7,8.6-15.8,8.6c-0.3,0-0.3-0.2-0.3-0.2c-0.1-0.3,0.2-0.3,0.6-0.4c4.4-1.6,9.6-6.1,11.8-8.2c1.3-1.3,2.4-1.7,3.2-1.3
		C27.9,33.6,28.1,34.6,28,35.1z"/>
	<path class="st0" d="M47.1,16.2c0.3-0.3,0.3-0.8,0-1.2c-0.3-0.3-0.8-0.3-1.2,0L31.7,29.4c0.6,0.2,1.1,0.4,1.7,0.6L47.1,16.2z"/>
	<path class="st0" d="M57.5,15.1c-0.3-0.3-0.8-0.3-1.2,0L37.3,34c0.3,0.5,0.4,1.2,0.6,1.8l19.6-19.5C57.8,15.9,57.8,15.4,57.5,15.1z
		"/>
</g>
</svg>
