<?xml version="1.0" encoding="utf-8"?>
<!-- Generator: Adobe Illustrator 21.0.0, SVG Export Plug-In . SVG Version: 6.00 Build 0)  -->
<svg version="1.1" id="Layer_1" xmlns="http://www.w3.org/2000/svg" xmlns:xlink="http://www.w3.org/1999/xlink" x="0px" y="0px"
	 viewBox="0 0 64 64" style="enable-background:new 0 0 64 64;" xml:space="preserve">
<style type="text/css">
	.st0{fill:#FFFFFF;}
</style>
<g>
	<path class="st0" d="M50,33.3c-4-3.3-9.7-6-16.1-7.8c-6.3-1.7-12.8-2.3-17.8-1.5c-5.5,0.8-9,3.1-10,6.5
		c-1.6,5.9,5.8,13.1,17.5,17.3l-3.3,3.5c-0.1,0.1-0.1,0.3-0.1,0.4s0.2,0.2,0.3,0.2h0.1l14.6-2.4c0.1,0,0.3-0.1,0.3-0.3
		c0-0.1,0-0.3-0.1-0.3l-12-8.6c-0.1-0.1-0.3-0.1-0.4,0s-0.1,0.2-0.1,0.4l1.3,4.4c-9.8-3.7-16.5-9.6-15.4-13.8
		c0.6-2.1,3.4-3.8,7.7-4.4c4.7-0.7,10.7-0.2,16.6,1.5c6,1.6,11.4,4.2,15.1,7.2c3.3,2.8,4.9,5.5,4.3,7.8c-0.7,2.4-4.2,4.2-9.3,4.6
		c-0.8,0.1-1.3,0.8-1.2,1.5c0.1,0.8,0.8,1.3,1.5,1.2c6.4-0.6,10.7-3,11.7-6.7C56.2,40.6,54.4,36.8,50,33.3z"/>
	<path class="st0" d="M56.8,12.3H44.1c-0.7,0-1.2,0.6-1.2,1.2v2.7L37.2,13c-0.3-0.2-0.8-0.2-1.2,0c-0.3,0.2-0.6,0.6-0.6,1v8
		c0,0.4,0.2,0.8,0.6,1c0.3,0.2,0.8,0.2,1.2,0l5.7-3.3V23c0,0.7,0.6,1.2,1.2,1.2h12.7c0.7,0,1.2-0.6,1.2-1.2v-9.6
		C58,12.9,57.5,12.3,56.8,12.3z"/>
</g>
</svg>
