<?xml version="1.0" encoding="utf-8"?>
<!-- Generator: Adobe Illustrator 21.0.0, SVG Export Plug-In . SVG Version: 6.00 Build 0)  -->
<svg version="1.1" id="Layer_1" xmlns="http://www.w3.org/2000/svg" xmlns:xlink="http://www.w3.org/1999/xlink" x="0px" y="0px"
	 viewBox="0 0 64 64" style="enable-background:new 0 0 64 64;" xml:space="preserve">
<style type="text/css">
	.st0{fill:#FCFCFC;}
</style>
<g>
	<path class="st0" d="M47.1,24.7l-7.8-7.9l-3.7-3.7c-0.4-0.4-1-0.4-1.4,0l-5.7,5.7c-0.4,0.4-0.4,1,0,1.4l3.6,3.6L14.6,41.4
		c-0.1,0.1-0.1,0.1-0.1,0.2l-5.1,8.6c-0.2,0.2-0.5,0.4-0.7,0.7c-1.1,1.1-2.1,2-2.1,3.3c0,0.7,0.4,1.5,1.1,2.2c0.7,0.7,1.5,1.1,2.2,1
		c1.3,0,2.3-1,3.3-2.1c0.2-0.2,0.4-0.4,0.7-0.7l8.7-4.9c0.1-0.1,0.1-0.1,0.2-0.1l17.5-17.6l3.6,3.6c0.4,0.4,1,0.4,1.4,0l5.7-5.7
		c0.4-0.4,0.4-1,0-1.4L47.1,24.7z M11.6,53.9c-0.7,0.7-1.5,1.5-1.9,1.5c-0.3,0-0.6-0.3-0.8-0.5c-0.3-0.3-0.5-0.6-0.5-0.8
		c0-0.4,0.7-1.2,1.5-1.8c0.3-0.2,0.6-0.5,0.8-0.8c0,0,0-0.1,0.1-0.1l1.6,1.6c0,0-0.1,0-0.1,0.1C12.1,53.4,11.9,53.6,11.6,53.9z
		 M21.3,48l-6.9,4L12,49.6l4.1-6.8l17.4-17.5l5.3,5.3L21.3,48z"/>
	<path class="st0" d="M56.1,9.1L54.9,8c-0.9-0.9-2.1-1.4-3.3-1.4c-1.2,0-2.5,0.5-3.3,1.4l-7.5,7.5l7.8,7.9l7.5-7.5
		c0.9-0.9,1.4-2.1,1.4-3.3C57.4,11.2,56.9,10,56.1,9.1z"/>
</g>
</svg>
