<?xml version="1.0" encoding="utf-8"?>
<!-- Generator: Adobe Illustrator 21.0.0, SVG Export Plug-In . SVG Version: 6.00 Build 0)  -->
<svg version="1.1" id="Layer_1" xmlns="http://www.w3.org/2000/svg" xmlns:xlink="http://www.w3.org/1999/xlink" x="0px" y="0px"
	 viewBox="0 0 975 1295" style="enable-background:new 0 0 975 1295;" xml:space="preserve">
<style type="text/css">
	.st0{fill:none;stroke:#DDD;stroke-width:27;stroke-linejoin:round;stroke-dasharray:40.3537,30.2653;}
	.st1{fill:#FFFFFF;}
	.st2{fill:#37404D;}
	.st3{fill:#FFFFFF;stroke:#000000;stroke-width:15;stroke-miterlimit:10;}
	.st4{font-family:'ArialMT';}
	.st5{font-size:85px;}
	.st6{fill:none;stroke:#37404D;stroke-width:15;stroke-miterlimit:10;}
	.st7{fill:none;stroke:#37404D;stroke-width:14;stroke-miterlimit:10;}
</style>
<g id="drop">
	<g id="area">
		<path class="st0" d="M887.1,1080.8H87.3c-40.7,0-73.8-33-73.8-73.8V449.7c0-40.7,33-73.8,73.8-73.8h799.8
			c40.7,0,73.8,33,73.8,73.8v557.4C960.8,1047.8,927.8,1080.8,887.1,1080.8z"/>
	</g>
	<rect id="white" x="251.3" y="336.6" class="st1" width="489" height="124.3"/>
</g>
<g id="file">
	<path class="st2" d="M676.7,281.9L579.8,185h-15.2H559H312.4v499.8h364.4L676.7,281.9L676.7,281.9z M579.8,214.5l57.2,57.2h-57.2
		V214.5z M333.2,664V205.8H559v86.6h97V664L333.2,664L333.2,664z"/>
	<path id="MousePointer" class="st3" d="M622.8,616.9L795,700l-62.8,25.6l62,69.8l-21,18.7L712,742.9l-32.1,57.6L622.8,616.9z"/>
	<g id="type">
		<rect x="330" y="409.9" class="st2" width="223" height="107"/>
		<text transform="matrix(1 0 0 1 344.4962 492.9875)" class="st1 st4 st5">.OBJ</text>
	</g>
	<line class="st6" x1="444.6" y1="156.4" x2="442.3" y2="0.1"/>
	<line class="st7" x1="398.5" y1="158" x2="398.5" y2="53.7"/>
	<line class="st7" x1="494.6" y1="110.3" x2="494.6" y2="158"/>
</g>
</svg>
