<?xml version="1.0" encoding="utf-8"?>
<!-- Generator: Adobe Illustrator 21.0.0, SVG Export Plug-In . SVG Version: 6.00 Build 0)  -->
<svg version="1.1" id="Layer_1" xmlns="http://www.w3.org/2000/svg" xmlns:xlink="http://www.w3.org/1999/xlink" x="0px" y="0px"
	 viewBox="0 0 64 64" style="enable-background:new 0 0 64 64;" xml:space="preserve">
<style type="text/css">
	.st0{fill:#FFFFFF;}
</style>
<path class="st0" d="M57.5,13.3c-0.3-0.4-0.7-0.5-1-0.5H31.9c-0.2,0-0.4,0.1-0.6,0.1l-0.1-0.1L10.5,34.8L10.3,35l0,0
	c-0.1,0.1-0.1,0.1-0.1,0.2L6.4,49.7c-0.1,0.4,0,0.8,0.2,1.1c0.2,0.3,0.6,0.5,0.9,0.5h24.6c0.4,0,0.7-0.1,1.1-0.5l20.2-21.4
	c0.1-0.1,0.3-0.4,0.4-0.7l3.7-13.8l0.1-0.5C57.8,14,57.7,13.6,57.5,13.3z M34.4,36.9l-3.2,11.8h-22l3.2-11.8H34.4z M53.8,15.3
	L35.6,34.4H14.2l18.2-19.2H53.8L53.8,15.3z"/>
</svg>
