<?xml version="1.0" encoding="utf-8"?>
<!-- Generator: Adobe Illustrator 21.0.0, SVG Export Plug-In . SVG Version: 6.00 Build 0)  -->
<svg version="1.1" id="Layer_1" xmlns="http://www.w3.org/2000/svg" xmlns:xlink="http://www.w3.org/1999/xlink" x="0px" y="0px"
	 viewBox="0 0 64 64" style="enable-background:new 0 0 64 64;" xml:space="preserve">
<style type="text/css">
	.st0{fill:#FFFFFF;}
</style>
<path class="st0" d="M57.6,19.7c-0.1-0.2-0.3-0.2-0.5-0.2l0,0h-4.7v-3c0-0.4-0.3-0.7-0.7-0.7H29.7L27,12.5c-0.1-0.2-0.3-0.2-0.5-0.2
	H6.9c-0.4,0-0.7,0.3-0.7,0.7v38c0,0,0,0,0,0c0,0,0,0,0,0c0,0,0,0,0,0c0,0,0,0,0,0c0,0,0,0,0,0c0,0,0,0,0,0c0,0,0,0,0,0c0,0,0,0,0,0
	c0,0,0,0,0,0c0,0,0,0,0,0c0,0,0,0,0,0.1c0,0,0,0,0,0c0,0,0,0,0,0.1c0,0,0,0,0,0c0,0,0,0,0,0c0,0,0,0,0,0c0,0,0,0,0,0c0,0,0,0,0,0
	c0,0,0,0,0,0c0,0,0,0,0,0c0,0,0,0,0,0c0,0,0,0,0,0c0,0,0,0,0,0c0,0,0,0,0,0c0,0,0,0,0,0c0,0,0,0,0.1,0c0,0,0,0,0,0c0,0,0,0,0.1,0
	c0,0,0,0,0,0c0,0,0,0,0.1,0l0,0l0,0h44.7c0.3,0,0.6-0.2,0.7-0.6l5.4-30.8C57.8,20.1,57.7,19.9,57.6,19.7z M26.1,13.7l2.8,3.3
	c0.1,0.2,0.3,0.2,0.5,0.2h21.5v2.3H34.7c-0.1,0-0.1,0-0.2,0L23.2,23H11.8c-0.3,0-0.6,0.2-0.7,0.6L7.6,43.1V13.7H26.1z M7.8,50.3
	l4.6-25.9h10.9c0.1,0,0.1,0,0.2,0l11.3-3.5h16.8h4.6L51,50.3H7.8z"/>
</svg>
