<?xml version="1.0" encoding="utf-8"?>
<!-- Generator: Adobe Illustrator 21.0.0, SVG Export Plug-In . SVG Version: 6.00 Build 0)  -->
<svg version="1.1" id="Layer_1" xmlns="http://www.w3.org/2000/svg" xmlns:xlink="http://www.w3.org/1999/xlink" x="0px" y="0px"
	 viewBox="0 0 64 64" style="enable-background:new 0 0 64 64;" xml:space="preserve">
<style type="text/css">
	.st0{fill:#FFFFFF;}
</style>
<path class="st0" d="M8.5,51.7c0,0-0.2,0-0.2,0c0,0,0,0-0.1,0c0,0-0.1,0-0.2,0c0,0-0.1,0-0.1,0c0,0-0.1,0-0.1,0c0,0-0.1,0-0.1,0
	c0,0-0.1,0-0.1,0c0,0-0.1,0-0.1-0.1c0,0-0.1-0.1-0.1-0.1c0,0-0.1-0.1-0.1-0.1c0,0-0.1-0.1-0.1-0.1c0,0-0.1-0.1-0.1-0.1
	c0,0-0.1-0.1-0.1-0.2c0,0,0-0.1,0-0.1c0,0,0,0,0,0c0,0-0.1-0.2-0.1-0.2c0-0.1,0-0.1,0-0.2c0,0,0-0.1,0-0.1c0-0.1,0-0.1,0-0.2l0-36
	c0-0.9,0.7-1.6,1.6-1.6h18.4c0.5,0,0.9,0.2,1.2,0.6l2.3,2.8h20.3c0.9,0,1.6,0.7,1.6,1.6v1.9h3.5c0.5,0,0.9,0.2,1.2,0.6
	c0.3,0.4,0.4,0.8,0.4,1.3l-5.1,29.1c-0.1,0.8-0.8,1.3-1.6,1.3H8.5z M49.4,48.5L54,22.6H35l-10.6,3.3c-0.2,0-0.3,0.1-0.5,0.1h-9.6
	l-4,22.6H49.4z M10.1,31.8l1.4-7.8c0.1-0.8,0.8-1.3,1.6-1.3h10.7l10.6-3.3c0.2,0,0.3-0.1,0.5-0.1h14.4v-0.3H29.7
	c-0.5,0-0.9-0.2-1.2-0.6l-2.3-2.8H10.1V31.8z"/>
</svg>
