<?xml version="1.0" encoding="utf-8"?>
<!-- Generator: Adobe Illustrator 21.0.0, SVG Export Plug-In . SVG Version: 6.00 Build 0)  -->
<svg version="1.1" id="Layer_1" xmlns="http://www.w3.org/2000/svg" xmlns:xlink="http://www.w3.org/1999/xlink" x="0px" y="0px"
	 viewBox="0 0 64 64" style="enable-background:new 0 0 64 64;" xml:space="preserve">
<style type="text/css">
	.st0{fill:#FFFFFF;}
</style>
<path class="st0" d="M6.9,52.2c0,0-0.1,0-0.1,0c0,0-0.1,0-0.1,0l0,0c0,0-0.1,0-0.1,0c0,0-0.1,0-0.1,0c0,0-0.1-0.1-0.1-0.1
	c0,0-0.1-0.1-0.1-0.1c0,0-0.1-0.1-0.1-0.1c0,0-0.1-0.1-0.1-0.1c0,0-0.1-0.1-0.1-0.1c0,0,0-0.1-0.1-0.1c0-0.1,0-0.1-0.1-0.1
	c0,0-0.1-0.2-0.1-0.2c0,0,0-0.1,0-0.1l0-38.1c0-0.7,0.5-1.2,1.2-1.2h19.5c0.4,0,0.7,0.2,0.9,0.4l2.6,3.1h21.7c0.7,0,1.2,0.5,1.2,1.2
	V19h4.2c0.4,0,0.7,0.2,0.9,0.4c0.2,0.3,0.3,0.6,0.3,1l-5.4,30.8c-0.1,0.6-0.6,1-1.2,1H6.9z M50.6,49.8l5-28.4H34.9l-11.3,3.5
	c-0.1,0-0.2,0.1-0.4,0.1H12.8L8.4,49.8H50.6z M8.1,37.4l2.4-13.8c0.1-0.6,0.6-1,1.2-1h11.3l11.3-3.5c0.1,0,0.2-0.1,0.4-0.1h15.7
	v-1.3h-21c-0.4,0-0.7-0.2-0.9-0.4l-2.6-3.1H8.1V37.4z"/>
</svg>
