<?xml version="1.0" encoding="utf-8"?>
<!-- Generator: Adobe Illustrator 21.0.0, SVG Export Plug-In . SVG Version: 6.00 Build 0)  -->
<svg version="1.1" id="Layer_1" xmlns="http://www.w3.org/2000/svg" xmlns:xlink="http://www.w3.org/1999/xlink" x="0px" y="0px"
	 viewBox="0 0 64 64" style="enable-background:new 0 0 64 64;" xml:space="preserve">
<style type="text/css">
	.st0{fill:#FFFFFF;}
</style>
<path class="st0" d="M57.5,23.2c-0.4-1.2-1.3-2.3-2.5-2.9c-0.7-0.4-1.5-0.6-2.3-0.6c-1.8,0-3.5,1-4.4,2.6l-1.6,2.2l0.7-8.2
	c0.1-1.3-0.2-2.6-1-3.6c-0.8-1-2-1.7-3.3-1.9c-2.8-0.4-5.2,1.7-5.5,4.3l-0.2,1.4L37,11.5c0-2.8-2.3-4.9-4.9-4.9
	c-2.7,0-4.9,2.3-4.9,4.9v10.4L24,15c-0.9-1.7-2.5-2.8-4.4-2.8c-0.8,0-1.5,0.1-2.3,0.5c-1.2,0.6-2,1.6-2.5,2.9
	c-0.4,1.2-0.4,2.6,0.2,3.7l4.6,10.6l0.8,2.6l-6.2-4.1c-0.9-0.7-2-1.1-3.1-1.1c-1.5,0-3,0.7-3.9,1.9c-1.7,2.1-1.3,5.2,0.8,6.9
	l14.2,13.3l0.9,6.7c0.1,0.7,0.7,1.1,1.2,1.1h20.9c0.7,0,1.2-0.5,1.3-1.2l0.3-6l10.2-23C57.8,25.8,57.8,24.5,57.5,23.2z M11.2,29.9
	c0.6,0,1.1,0.2,1.5,0.6l9.2,6.3c0.4,0.3,1,0.3,1.5,0c0.4-0.3,0.7-0.9,0.5-1.4l-1.8-6.1c0-0.1,0-0.1-0.1-0.1l-4.7-10.8
	c-0.3-0.6-0.4-1.2-0.1-1.8s0.7-1.1,1.2-1.4c0.4-0.1,0.7-0.3,1.1-0.3c0.9,0,1.7,0.5,2.1,1.2l5.5,12.4c0.2,0.5,0.9,0.9,1.5,0.7
	c0.6-0.1,1-0.7,1-1.2V11.6c0-1.3,1.1-2.4,2.4-2.4c1.4,0,2.4,1.1,2.4,2.5l1.1,16.4c0.1,0.7,0.6,1.2,1.3,1.2c0.7,0,1.2-0.4,1.2-1.1
	l2-12.9c0.1-1.3,1.3-2.3,2.7-2.1c0.7,0.1,1.2,0.4,1.6,0.9c0.4,0.5,0.6,1.2,0.5,1.8l-1.1,12.9c-0.1,0.6,0.3,1.1,0.8,1.3
	c0.5,0.2,1.2,0,1.5-0.4l4.3-6c0.1-0.1,0.1-0.1,0.1-0.1c0.4-0.8,1.2-1.3,2.1-1.3c0.4,0,0.7,0.1,1.1,0.3c0.6,0.3,1,0.8,1.2,1.4
	c0.2,0.7,0.1,1.2-0.2,1.9L44.4,49.1c-0.1,0.1-0.1,0.3-0.1,0.4l-0.2,5.1H25.7l-0.9-6c-0.1-0.3-0.2-0.6-0.4-0.7L9.9,34.3l-0.1-0.1
	c-0.5-0.4-0.8-0.9-0.9-1.6C8.8,32,9,31.4,9.4,30.9C9.9,30.2,10.5,29.9,11.2,29.9z"/>
</svg>
