<?xml version="1.0" encoding="utf-8"?>
<!-- Generator: Adobe Illustrator 21.0.0, SVG Export Plug-In . SVG Version: 6.00 Build 0)  -->
<svg version="1.1" id="Layer_1" xmlns="http://www.w3.org/2000/svg" xmlns:xlink="http://www.w3.org/1999/xlink" x="0px" y="0px"
	 viewBox="0 0 64 64" style="enable-background:new 0 0 64 64;" xml:space="preserve">
<style type="text/css">
	.st0{fill:#FFFFFF;}
</style>
<g>
	<path class="st0" d="M57.5,31.5c-1.5-1.9-5.1-6.1-10.8-9.3l-5.3,5.3c0.8,1.5,1.2,3.2,1.2,5C42.6,38.3,38,43,32.2,43
		c-1.8,0-3.5-0.4-5-1.2l-3.6,3.6c2.6,0.8,5.4,1.2,8.6,1.2c14.2,0,22.9-9.7,25.4-13C57.9,32.9,57.9,32.1,57.5,31.5z"/>
	<path class="st0" d="M32.1,40.1c4.2,0,7.6-3.4,7.6-7.6c0-1-0.2-1.9-0.5-2.8l-9.9,9.9C30.2,39.9,31.1,40.1,32.1,40.1z"/>
	<path class="st0" d="M52.1,10.3c-0.7-0.7-1.8-0.7-2.5,0l-9.3,9.3c-2.4-0.7-5.1-1.1-8.1-1.1c-14.2,0-22.9,9.7-25.4,13
		c-0.5,0.6-0.5,1.5,0,2.1c1.5,1.9,5,6,10.5,9l-7.3,7.3c-0.7,0.7-0.7,1.8,0,2.5c0.4,0.4,0.8,0.5,1.3,0.5s0.9-0.2,1.3-0.5l39.6-39.6
		C52.8,12.2,52.8,11,52.1,10.3z M21.6,32.5c0-5.8,4.7-10.5,10.5-10.5c1.6,0,3.2,0.4,4.6,1.1l-2.2,2.2C33.7,25.1,33,25,32.1,25
		c-4.2,0-7.6,3.4-7.6,7.6c0,0.8,0.2,1.6,0.4,2.4l-2.2,2.2C22,35.7,21.6,34.1,21.6,32.5z"/>
</g>
</svg>
