<?xml version="1.0" encoding="utf-8"?>
<!-- Generator: Adobe Illustrator 21.0.0, SVG Export Plug-In . SVG Version: 6.00 Build 0)  -->
<svg version="1.1" id="Layer_1" xmlns="http://www.w3.org/2000/svg" xmlns:xlink="http://www.w3.org/1999/xlink" x="0px" y="0px"
	 viewBox="0 0 64 64" style="enable-background:new 0 0 64 64;" xml:space="preserve">
<style type="text/css">
	.st0{fill:#FFFFFF;}
</style>
<path class="st0" d="M57.4,23.7c0-0.5-0.2-0.9-0.7-1.2l-24-15.6c-0.5-0.3-1.1-0.3-1.6,0L7.2,22.4c-0.4,0.3-0.7,0.7-0.7,1.2
	c0,0.5,0.2,0.9,0.7,1.2L18,32L7.2,39c-0.4,0.3-0.7,0.7-0.7,1.2c0,0.5,0.2,0.9,0.7,1.2l23.9,15.6c0.2,0.1,0.5,0.2,0.8,0.2
	s0.6-0.1,0.8-0.2l23.9-15.6c0.4-0.3,0.7-0.7,0.7-1.2c0-0.5-0.2-0.9-0.7-1.2l-10.8-7.1l10.8-7.1C57.1,24.7,57.4,24.2,57.4,23.7z
	 M23.7,32.2L23.4,32l0.3-0.1V32.2z M25.5,33.3l-1.2-0.8v-1.1l1.2-0.8V33.3z M27.2,34.5l-1.2-0.8v-3.4l1.2-0.8V34.5z M29.1,35.7
	l-1.2-0.8v-5.7l1.2-0.8V35.7z M30.8,36.8L29.6,36v-8.1l1.2-0.8V36.8z M32.5,37.2L32,37.6l-0.6-0.4V26.8l0.6-0.4l0.6,0.4V37.2z
	 M34.4,36l-1.2,0.8v-9.7l1.2,0.8V36z M36.1,34.9l-1.2,0.8v-7.3l1.2,0.8V34.9z M37.9,33.7l-1.2,0.8v-5l1.2,0.8V33.7z M39.7,32.5
	l-1.2,0.8v-2.7l1.2,0.8V32.5z M40.3,32.2v-0.4l0.3,0.1L40.3,32.2z M43.2,30.2l-10.5-6.8c-0.5-0.3-1.1-0.3-1.6,0l-10.5,6.8l-10-6.5
	L32,9.8l21.2,13.9L43.2,30.2z"/>
</svg>
