<?xml version="1.0" encoding="utf-8"?>
<!-- Generator: Adobe Illustrator 21.0.0, SVG Export Plug-In . SVG Version: 6.00 Build 0)  -->
<svg version="1.1" id="Layer_1" xmlns="http://www.w3.org/2000/svg" xmlns:xlink="http://www.w3.org/1999/xlink" x="0px" y="0px"
	 viewBox="0 0 64 64" style="enable-background:new 0 0 64 64;" xml:space="preserve">
<style type="text/css">
	.st0{fill:#FFFFFF;}
</style>
<g>
	<path class="st0" d="M56.5,12.4h-49c-0.7,0-1.3,0.6-1.3,1.3v36.7c0,0.7,0.6,1.3,1.3,1.3h49c0.7,0,1.3-0.6,1.3-1.3V13.7
		C57.7,13,57.2,12.4,56.5,12.4z M55.2,49.1H8.8V14.9h46.5V49.1z"/>
	<path class="st0" d="M32,46c7.7,0,14-6.3,14-14s-6.3-14-14-14s-14,6.3-14,14S24.3,46,32,46z M32,20.6c6.3,0,11.5,5.1,11.5,11.5
		S38.3,43.5,32,43.5S20.5,38.4,20.5,32S25.7,20.6,32,20.6z"/>
</g>
</svg>
