<?xml version="1.0" encoding="utf-8"?>
<!-- Generator: Adobe Illustrator 21.0.0, SVG Export Plug-In . SVG Version: 6.00 Build 0)  -->
<svg version="1.1" id="Layer_1" xmlns="http://www.w3.org/2000/svg" xmlns:xlink="http://www.w3.org/1999/xlink" x="0px" y="0px"
	 viewBox="0 0 64 64" style="enable-background:new 0 0 64 64;" xml:space="preserve">
<g>
	<path fill="#FFFFFF" d="M46.1,32.2c-1.9,0.3-3.7,0.6-5.5,0.8c-6.8,0.5-13.6,0.6-20.4-0.4c-2.1-0.3-2.1-0.3-1.7-2.4c1.4-6.6,7.2-11.3,13.9-11.2
		C39.1,19.1,44.8,24,46,30.7C46,31.1,46,31.6,46.1,32.2z"/>
	<path fill="#FFFFFF" d="M12.9,22.3c-0.3-0.4-0.6-0.7-0.9-1.1c-0.2-0.3-0.5-0.6-0.8-1.2c3.2,0,6.2,0,9.4,0c-0.2,0.4-0.4,0.7-0.5,0.9
		c-1,1.4-2.1,2.8-3.1,4.1c-0.7,0.9-1,0.9-1.7,0c-0.3-0.4-0.6-0.7-0.9-1.1c-2.6,1-4,3.4-3.4,5.7c0.4,1.6,1.6,2.4,3,3.1
		c2.4,1.1,5,1.6,7.6,1.9c6.3,0.7,12.6,0.8,18.9,0.2c2.8-0.3,5.5-1,8.2-1.6c0.9-0.2,1.7-0.7,2.5-1.2c2.3-1.5,3-4,1.5-6.4
		c-0.8-1.3-2-2.3-3-3.4c-0.3-0.3-0.7-0.6-1.2-1.1c0.4,0,0.6-0.1,0.7,0c3.1,0.8,5.8,2.1,7.7,4.7c1.6,2.2,1.3,5-0.7,7
		c-2.4,2.5-5.5,3.6-8.7,4.4c-7,1.7-14.2,1.8-21.3,1.4c-4.5-0.3-8.9-0.9-13.1-2.6c-1.8-0.7-3.5-1.7-4.9-3.2c-2.3-2.4-2.2-5.5,0.2-7.7
		c0.7-0.6,1.4-1.1,2.1-1.6C11.3,23.1,12.1,22.8,12.9,22.3z"/>
	<path fill="#FFFFFF" d="M44.5,39.8c-2.9,4.7-6.9,7.2-12.2,7.2c-5.3,0-9.4-2.4-12.4-7.2C28.1,41,36.1,41,44.5,39.8z"/>
	<path fill="#FFFFFF" d="M43,20.7c-1.8-1.4-3.5-2.6-5.1-3.9c-0.5-0.4-0.4-0.9,0-1.3c0.4-0.4,0.9-0.8,1.5-1.3c-0.8-0.9-1.4-1.8-2.2-2.5
		c-1.8-1.5-4.3-1.2-5.7,0.7c-0.9,1.2-1.4,2.7-2,4.2c-0.2,0.5-0.4,0.9-1,1c-0.9,0.2-1.9,0.5-2.8,0.8c0-0.1-0.1-0.2-0.1-0.2
		c0.6-3,1.5-6,3.4-8.5C29.4,9,30,8.3,30.7,7.8c2.5-1.9,5.2-1.7,7.3,0.6c1.1,1.3,2,2.9,3.1,4.4c0.4-0.3,0.9-0.7,1.4-1.1
		c0.5-0.4,0.9-0.3,0.9,0.4c0,2.6,0,5.2,0,7.9C43.3,20.1,43.1,20.3,43,20.7z"/>
	<path fill="#FFFFFF" d="M41.9,48.4c0.1,3.3-3.1,8-5.8,9c-1.8,0.7-3.5,0.5-5-0.7c-1-0.8-1.9-1.9-2.7-3c-1.2-1.7-2.3-4.8-2.4-6.2
		c1.2,0.4,2.4,0.7,3.6,1.1c0.2,0.1,0.4,0.4,0.5,0.6c0.3,0.6,0.6,1.3,1,1.9c1.4,2.3,3.8,3,6.1,1.6c1.3-0.7,2.3-1.9,3.4-2.9
		C41,49.5,41.4,49.1,41.9,48.4z"/>
</g>
</svg>
