<?xml version="1.0" encoding="utf-8"?>
<!-- Generator: Adobe Illustrator 21.0.0, SVG Export Plug-In . SVG Version: 6.00 Build 0)  -->
<svg version="1.1" id="Capa_1" xmlns="http://www.w3.org/2000/svg" xmlns:xlink="http://www.w3.org/1999/xlink" x="0px" y="0px"
	 viewBox="0 0 64 64" style="enable-background:new 0 0 64 64;" xml:space="preserve">
<style type="text/css">
	.st0{fill:#FFFFFF;}
</style>
<g>
	<path class="st0" d="M17.8,30.2L6.7,53.8l25.5-5.3l14.6-15.7L36.5,19.7L17.8,30.2z M28.1,36.9c1.1,1.4,0.8,3.4-0.5,4.4
		c-1.4,1.1-3.4,0.8-4.4-0.5c-1.1-1.4-0.8-3.4,0.5-4.4C25.1,35.3,27.1,35.6,28.1,36.9z"/>
	<rect x="43.5" y="11.7" transform="matrix(0.7851 -0.6193 0.6193 0.7851 -3.2913 34.0302)" class="st0" width="7.8" height="20"/>
</g>
<polygon class="st0" points="25.9,18.3 21.5,18.3 21.5,22.8 16.2,22.8 16.2,18.3 11.7,18.3 11.7,13 16.2,13 16.2,8.6 21.5,8.6 
	21.5,13 25.9,13 "/>
</svg>
