<?xml version="1.0" encoding="utf-8"?>
<!-- Generator: Adobe Illustrator 21.0.0, SVG Export Plug-In . SVG Version: 6.00 Build 0)  -->
<svg version="1.1" id="Layer_1" xmlns="http://www.w3.org/2000/svg" xmlns:xlink="http://www.w3.org/1999/xlink" x="0px" y="0px"
	 viewBox="0 0 64 64" style="enable-background:new 0 0 64 64;" xml:space="preserve">
<style type="text/css">
	.st0{fill:#FFFFFF;}
</style>
<g>
	<g>
		
			<rect x="17.4" y="26.2" transform="matrix(0.7071 -0.7071 0.7071 0.7071 -22.2829 27.4346)" class="st0" width="9.2" height="28.8"/>
	</g>
</g>
<g>
	<g>
		<path class="st0" d="M44.4,23.9l11.4-11.4c1.4-1.4,1.4-3.5,0-4.9c-1.4-1.4-3.5-1.4-4.9,0L39.5,19L44.4,23.9z"/>
	</g>
</g>
<g>
	<g>
		
			<rect x="34.1" y="52.7" transform="matrix(0.7071 -0.7071 0.7071 0.7071 -28.0253 41.2985)" class="st0" width="3.5" height="3.5"/>
	</g>
</g>
<g>
	<g>
		<path class="st0" d="M35.8,30l4.9-4.9l-2.4-2.4l-4.9,4.9c-1.6,1.6-4.1,1.6-5.7,0l-7.3-7.3c-2.9-2.9-7.7-2.9-10.6,0
			c-2.4,2.4-2.8,5.9-1.4,8.7l2.7-2.7c-0.2-1.3,0.1-2.6,1.1-3.6c1.6-1.6,4.1-1.6,5.7,0l7.3,7.3C28.2,32.9,32.9,32.9,35.8,30z"/>
	</g>
</g>
</svg>
