<?xml version="1.0" encoding="utf-8"?>
<!-- Generator: Adobe Illustrator 21.0.0, SVG Export Plug-In . SVG Version: 6.00 Build 0)  -->
<svg version="1.1" id="Layer_1" xmlns="http://www.w3.org/2000/svg" xmlns:xlink="http://www.w3.org/1999/xlink" x="0px" y="0px"
	 viewBox="0 0 64 64" style="enable-background:new 0 0 64 64;" xml:space="preserve">
<style type="text/css">
	.st0{fill:#FFFFFF;}
</style>
<path class="st0" d="M57.4,30.9C54.9,27.7,46.3,18,32.2,18S9.5,27.7,7,30.9c-0.5,0.6-0.5,1.4,0,2c2.5,3.2,11.1,12.9,25.2,12.9
	s22.7-9.7,25.2-12.9C57.9,32.3,57.9,31.5,57.4,30.9z M12.4,31.9c2.7-2.9,7.9-7.3,15.2-8.7c-3.1,1.7-5.3,5-5.3,8.7s2.2,7,5.3,8.7
	C20.2,39.3,15,34.8,12.4,31.9z M36.8,40.6c3.1-1.7,5.3-5,5.3-8.7s-2.2-7-5.3-8.7c7.3,1.4,12.5,5.8,15.2,8.7
	C49.3,34.8,44.1,39.3,36.8,40.6z"/>
</svg>
