<?xml version="1.0" encoding="utf-8"?>
<!-- Generator: Adobe Illustrator 21.0.0, SVG Export Plug-In . SVG Version: 6.00 Build 0)  -->
<svg version="1.1" id="Layer_1" xmlns="http://www.w3.org/2000/svg" xmlns:xlink="http://www.w3.org/1999/xlink" x="0px" y="0px"
	 viewBox="0 0 64 64" style="enable-background:new 0 0 64 64;" xml:space="preserve">
<style type="text/css">
	.st0{fill:#FFFFFF;}
</style>
<path class="st0" d="M46.7,9.6l-5.6-3.2c-0.6-0.4-1.3-0.1-1.7,0.4s-0.1,1.3,0.4,1.7l5.2,2.9l4.3,16.2l-5.7,10l-7.9,2.1l7.7-13
	c0.4-0.6,0.1-1.3-0.4-1.7s-1.3-0.1-1.7,0.4L27.4,49.7l-2,3.5c-0.3,0.5-0.8,1-1.3,1.2c-0.2,0.1-0.4,0.2-0.7,0.3l-2.4,0.7
	c-0.4,0.1-0.8,0.1-1.2,0.1c-1-0.2-2-1-2.3-2.1c-0.4-1.1,0-2.1,0.8-2.9c0.3-0.3,0.7-0.5,1.2-0.7l1.5-0.4l1.6-2.7l11.3-19.6
	c0.4-0.6,0.1-1.3-0.4-1.7c-0.6-0.4-1.3-0.1-1.7,0.4l-1.5,2.6L25,37.3c-0.9,1-2.4,1.3-3.5,0.5c-1.3-0.8-1.8-2.5-1-3.9l4.6-7.7
	c0.4-0.6,0.1-1.3-0.4-1.7c-0.6-0.4-1.3-0.1-1.7,0.4l-1.2,2c-0.1,0.1-0.1,0.1-0.1,0.2l-1.7,2.6c-0.5,1.3-2,1.6-3.2,1
	c-0.6-0.3-1-0.8-1.1-1.5c-0.1-0.6-0.1-1.3,0.2-1.8l2.4-4.1c0.3-0.5,0.1-1.1-0.4-1.4c-0.5-0.3-1.1-0.1-1.4,0.4l-1.2,2.1l-0.8-2.9
	c-0.4-1.3,3.2-4.8,5.7-7.4c0.4-0.4,0.4-1.3,0-1.7c-0.4-0.4-1.3-0.4-1.7,0c-4.9,4.9-7.1,7.4-6.4,9.7l1.3,5c0.1,0.1,0.1,0.3,0.1,0.4
	c-0.2,0.7-0.2,1.6,0,2.4c0.3,1.2,1,2.1,2.1,2.7c0.8,0.4,1.6,0.7,2.5,0.6c-1.2,2.4-0.3,5.4,2.1,6.8c0.9,0.5,1.8,0.7,2.8,0.7l-3.7,6.7
	l-0.5,0.1c-2.8,0.7-4.5,3.6-3.7,6.4c0.7,2.8,3.6,4.5,6.4,3.7l2.4-0.7c0.4-0.1,0.8-0.3,1.2-0.5c1-0.4,1.8-1.2,2.3-2.1l6.6-11.8
	c0.2,0.1,0.4,0.1,0.7,0l9.9-2.6c0.3-0.1,0.6-0.3,0.7-0.6c0,0,4.2-7.3,6.3-10.9c0.1-0.3,0.2-0.6,0.1-1l-4.5-17
	C47.2,10.1,47,9.8,46.7,9.6z"/>
</svg>
