<?xml version="1.0" encoding="utf-8"?>
<!-- Generator: Adobe Illustrator 21.0.0, SVG Export Plug-In . SVG Version: 6.00 Build 0)  -->
<svg version="1.1" id="Layer_1" xmlns="http://www.w3.org/2000/svg" xmlns:xlink="http://www.w3.org/1999/xlink" x="0px" y="0px"
	 viewBox="0 0 64 64" style="enable-background:new 0 0 64 64;" xml:space="preserve">
<style type="text/css">
	.st0{fill:#FFFFFF;}
</style>
<g>
	<path class="st0" d="M57.5,19.4C57,13.3,47.9,9,35.5,9c-1.5,0-3.1,0.1-4.7,0.2c-6.7,0.6-12.9,2.3-17.5,4.9
		c-4.1,2.4-6.6,5.3-6.9,8.3l0,0v0.1c0,0.4,0,22.2,0,22.2c0,0.2,0.1,0.4,0.1,0.6c1.2,5.8,10,9.7,21.8,9.7c1.5,0,3.1-0.1,4.7-0.2
		c6.7-0.6,12.9-2.3,17.5-4.9c4.7-2.7,7.1-5.8,7-9.1v-0.6c0-0.1,0-0.1,0-0.1V20.8C57.5,20.3,57.5,19.9,57.5,19.4z M55.5,40.4
		c0,0.3,0,0.5,0,0.8c-0.2,2.3-2.3,4.8-6,6.9c-4.3,2.5-10.3,4.1-16.7,4.7c-1.5,0.1-3,0.2-4.4,0.2c-10.8,0-19.4-3.6-19.9-8.4
		c0-0.1,0-0.1,0-0.1c0-0.3,0-21.9,0-21.9h0.1c0.1-1.2,0.7-2.3,1.7-3.4c0.3,0.4,0.7,0.6,1.2,0.6c0.8,0,1.4-0.7,1.4-1.4
		c0-0.4-0.2-0.8-0.5-1.1c0.7-0.5,1.4-0.9,2.1-1.4c4.4-2.5,10.3-4.1,16.7-4.7c1.5-0.1,3-0.2,4.4-0.2c6.5,0,12.1,1.2,15.7,3.3
		c-0.4,0.3-0.8,0.9-0.8,1.5c0,0.9,0.8,1.7,1.7,1.7c0.8,0,1.5-0.5,1.7-1.2c0.9,1,1.5,2.1,1.7,3.3C55.5,20,55.5,40.3,55.5,40.4
		C55.5,40.3,55.5,40.3,55.5,40.4z"/>
	<circle class="st0" cx="40.3" cy="16.9" r="2.6"/>
	<circle class="st0" cx="35.2" cy="48.8" r="2.3"/>
	<circle class="st0" cx="49.3" cy="42.1" r="2.3"/>
	<circle class="st0" cx="15.8" cy="39.4" r="2.3"/>
	<circle class="st0" cx="24.8" cy="25.6" r="2.3"/>
	<circle class="st0" cx="31.6" cy="17.9" r="1.7"/>
	<circle class="st0" cx="30.4" cy="37.9" r="1.7"/>
	<circle class="st0" cx="34.9" cy="26.3" r="1.7"/>
	<circle class="st0" cx="24.4" cy="44.9" r="1.7"/>
	<circle class="st0" cx="40.5" cy="41.7" r="1.7"/>
	<circle class="st0" cx="15.4" cy="48.5" r="1.4"/>
	<circle class="st0" cx="52.3" cy="33.1" r="1.4"/>
	<ellipse class="st0" cx="46.2" cy="22.3" rx="1.2" ry="1.3"/>
	<circle class="st0" cx="21.2" cy="16" r="1.4"/>
	<circle class="st0" cx="16.9" cy="23.8" r="1.7"/>
	<circle class="st0" cx="23" cy="37.5" r="0.9"/>
	<circle class="st0" cx="19.8" cy="46.5" r="0.9"/>
	<circle class="st0" cx="10.5" cy="33.9" r="0.9"/>
	<circle class="st0" cx="11.8" cy="44.7" r="0.9"/>
	<circle class="st0" cx="27.9" cy="50.1" r="0.9"/>
	<circle class="st0" cx="35.3" cy="41.4" r="0.9"/>
	<circle class="st0" cx="30.6" cy="44.7" r="1.4"/>
	<circle class="st0" cx="47.4" cy="36" r="0.9"/>
	<circle class="st0" cx="30.2" cy="29.3" r="0.9"/>
	<circle class="st0" cx="36.2" cy="21" r="0.9"/>
	<circle class="st0" cx="27" cy="14.9" r="0.9"/>
	<circle class="st0" cx="43" cy="26.4" r="0.9"/>
	<circle class="st0" cx="25.4" cy="21.2" r="0.9"/>
	<circle class="st0" cx="47.4" cy="15.4" r="0.9"/>
	<circle class="st0" cx="16.3" cy="18.9" r="0.9"/>
	<circle class="st0" cx="43.4" cy="46.7" r="0.9"/>
	<circle class="st0" cx="37.3" cy="35.3" r="0.9"/>
	<path class="st0" d="M53.3,25.1c-0.4-0.5-1-0.6-1.5-0.2c-8.4,6.5-25.1,9.6-40.5,3c-0.6-0.2-1.2,0-1.5,0.6c-0.2,0.6,0,1.2,0.6,1.5
		c6,2.5,12.7,3.9,19.1,3.9c9,0,17.5-2.4,23.6-7.1C53.6,26.2,53.7,25.6,53.3,25.1z"/>
</g>
</svg>
