<?xml version="1.0" encoding="utf-8"?>
<!-- Generator: Adobe Illustrator 21.0.0, SVG Export Plug-In . SVG Version: 6.00 Build 0)  -->
<svg version="1.1" id="Layer_1" xmlns="http://www.w3.org/2000/svg" xmlns:xlink="http://www.w3.org/1999/xlink" x="0px" y="0px"
	 viewBox="0 0 64 64" style="enable-background:new 0 0 64 64;" xml:space="preserve">
<style type="text/css">
	.st0{fill:#FFFFFF;}
</style>
<g>
	<polygon class="st0" points="50.6,15.6 54.2,13.3 56.5,9.5 55.1,8.1 51.2,10.5 49,14 40.5,22.5 42,24.1 	"/>
	<path class="st0" d="M33.2,29.8l-4.2,4.2c-2.8-1.8-7-0.9-8.7,0.8l-12,12c-1.9,1.9-1.3,5.6,1.3,8.2c2.6,2.6,6.3,3.2,8.2,1.3l12-12
		c1.7-1.7,2.5-6,0.8-8.7l4.2-4.2L33.2,29.8z M22.6,38L11.5,49c-0.4,0.4-1.1,0.4-1.4,0c-0.4-0.4-0.4-1.1,0-1.4l11.1-11.1
		c0.4-0.4,1.1-0.4,1.4,0S22.9,37.5,22.6,38z"/>
	<path class="st0" d="M55.8,40.6L40.8,25.3l-1.6-1.6l-5.4-5.5c1.1-3,0.5-6.6-1.9-9c-3.3-3.3-8.7-3.3-12.1,0c-1,1-1.7,2.2-2.1,3.5
		h6.6c0.3,0,0.6,0.1,0.8,0.4c0.2,0.2,0.4,0.6,0.4,0.8v2.8c0,0.3-0.1,0.6-0.4,0.8c-0.2,0.2-0.6,0.4-0.8,0.4h-6.6
		c0.4,1.3,1.1,2.4,2,3.4c2.4,2.4,5.9,3.1,9,2l5.5,5.4l1.6,1.6l15.3,14.9c1.3,1.2,3.2,1.2,4.4,0C57,43.8,57,41.8,55.8,40.6z
		 M53.6,44.2c-0.8,0-1.3-0.6-1.3-1.3c0-0.8,0.6-1.3,1.3-1.3c0.8,0,1.3,0.6,1.3,1.3C54.9,43.5,54.3,44.2,53.6,44.2z"/>
</g>
</svg>
