<?xml version="1.0" encoding="utf-8"?>
<!-- Generator: Adobe Illustrator 21.0.0, SVG Export Plug-In . SVG Version: 6.00 Build 0)  -->
<svg version="1.1" id="Layer_1" xmlns="http://www.w3.org/2000/svg" xmlns:xlink="http://www.w3.org/1999/xlink" x="0px" y="0px"
	 viewBox="0 0 64 64" style="enable-background:new 0 0 64 64;" xml:space="preserve">
<style type="text/css">
	.st0{fill:#FFFFFF;}
</style>
<g>
	<path class="st0" d="M55.8,52.6L41.4,38.3c2.8-3.4,4.6-7.7,4.6-12.4c0-10.6-8.6-19.3-19.3-19.3S7.5,15.3,7.5,25.9
		s8.6,19.3,19.3,19.3c3.9,0,7.5-1.2,10.5-3.1l14.6,14.6c0.6,0.6,1.3,0.8,2,0.8c0.7,0,1.5-0.3,2-0.8C56.8,55.5,56.8,53.7,55.8,52.6z
		 M35.6,40.5C33,42.1,30,43,26.7,43c-9.4,0-17.1-7.7-17.1-17.1S17.3,8.7,26.7,8.7s17.1,7.7,17.1,17.1c0,4.1-1.5,7.9-3.9,10.9
		C38.7,38.2,37.2,39.4,35.6,40.5z"/>
	<path class="st0" d="M20.7,16.3c-0.5-0.3-1.1-0.4-1.7-0.2c-2,0.5-4.6,3.5-5.3,7.2c-0.4,2.2-0.3,6.3,4.4,9.4c0.1,0.1,0.3,0.1,0.4,0
		s0.1-0.2,0.1-0.4c0,0-1.7-3.6,1.2-8.4C21.8,20.7,23.4,17.9,20.7,16.3z"/>
</g>
</svg>
