<?xml version="1.0" encoding="utf-8"?>
<!-- Generator: Adobe Illustrator 21.0.0, SVG Export Plug-In . SVG Version: 6.00 Build 0)  -->
<svg version="1.1" id="Layer_1" xmlns="http://www.w3.org/2000/svg" xmlns:xlink="http://www.w3.org/1999/xlink" x="0px" y="0px"
	 viewBox="0 0 64 64" style="enable-background:new 0 0 64 64;" xml:space="preserve">
<style type="text/css">
	.st0{fill:#FFFFFF;}
</style>
<path class="st0" d="M56.6,30.9c-0.1-0.1-0.9-0.4-4.1-2.7c-0.4-0.3-0.8-0.6-1.3-1c-1.9-1.5-4.2-3.5-6.1-5.3c-2-1.8-3.5-3.3-3.5-3.3
	c-0.1-0.1-0.1-0.1-0.1-0.1c-3.3-3.3-8-5.3-13.2-5.3c-5.6,0-10.6,2.3-14,6.1c-1.2,0.3-2.2,0.7-3.3,1.1c-1,1.2-2.2,2.6-2.9,4
	c-0.9,2-1.2,2.7-1.4,5.1c0,0.3,0,0.5,0,0.8c0,0.5,0.1,1.4,0.1,2c0.4,1.6,1.4,2.5,2.8,3.2c0.4,0.2,0.9,0.4,1.3,0.4
	c-0.3,0.3-0.6,0.7-0.7,1.1c-0.4,0.7-0.5,1.4-0.5,2.2c0,0.9,0.2,1.7,0.7,2.4c0.2,0.4,0.5,0.7,0.8,0.9c3.5,4,8.6,6.5,14.2,6.5
	c1.4,0,2.9-0.1,4.3-0.5c0.4-0.1,1.4-0.4,1.6-0.4c3.5-1.2,8.4-2.7,10.8-3.3c0.6-0.1,1.1-0.2,1.3-0.2c0.9,0.1,3.5,2.7,4.8,4
	c0.9,0.9,1.7,1.7,2.3,2.2c0.2,0.1,0.4,0.2,0.7,0.2c0.3,0,0.7-0.1,0.9-0.4c0.4-0.5,0.3-1.2-0.2-1.5c-0.5-0.4-1.3-1.2-2.1-2
	c-2.8-2.7-4.7-4.6-6.3-4.6c-0.5,0-1.5,0.2-2.7,0.5C40,43,29.5,46.6,25.4,46.6c-2,0-3.9-0.4-5.6-1c-1.5-0.6-3-1.3-4.2-2.2
	c-0.9-0.7-1.7-1.4-2.5-2.2c-0.4-0.4-0.8-0.9-1.2-1.4c-0.1-0.1-0.2-0.4-0.2-0.7c0-1.4,1.2-2.5,2.5-2.5c0.9,0,1.6,0.5,2.2,1.2
	c0.7,0.9,1.4,1.7,2.3,2.2c1.2,0.7,2.6,1.2,4.1,1.2c2.5,0,4.7-1.2,6.2-3c0-0.1,0.1-0.1,0.1-0.1c1-1.2,2.5-3,2.5-4.7
	c0-1.7-1.4-3.7-2.4-5c-0.1-0.1-0.1-0.1-0.1-0.2c-1.4-1.8-3.7-3-6.2-3s-4.7,1.2-6.1,3c-1.1,1.4-1.7,3.1-1.7,5l-3,0.7
	c-1.4,0-2.7-1-3.1-2.3c0-0.1-0.1-0.4-0.1-0.7c0-0.3-0.1-0.7,0-0.9c0.1-1.4,0.4-2.5,1-3.6c0.8-1.7,1.2-2.5,2.5-4
	c2.2-0.9,6.8-2,9.3-1.9c0.7,0,1.1-0.4,1.1-1s-0.4-1.1-1-1.1c-1,0-3.4,0.4-4.9,0.7c0.5-0.1,1-0.2,1.6-0.4c2.7-1.9,6.4-3.1,10-3.1
	c8,0,13.1,6,13.2,6c1.1,1,3.1,2.9,4.6,4.3c0.7,0.6,1.3,1.2,1.9,1.7c1.2,1,2.4,2,3.3,2.7c1.8,1.3,4,2.8,4.6,3C56,33,56.1,33,56.3,33
	c0.4,0,0.9-0.3,1-0.7C57.4,31.7,57.1,31.1,56.6,30.9z M17.3,32.9c0.1-3.1,2.6-5.6,5.8-5.6c1.3,0,2.5,0.4,3.5,1.2
	c0.1,0.1,0.1,0.1,0.2,0.2c1.2,1,2.6,3.1,2.5,4.6c-0.1,1.5-1.6,3.5-2.7,4.4c-0.9,0.7-2.2,1.2-3.5,1.2c-2.3,0-4.3-1.3-5.2-3.3
	c-0.1-0.1-0.1-0.1-0.1-0.1c-0.5-0.7-1.3-0.8-1.8-0.8l0,0C16.8,34.5,17.2,33.3,17.3,32.9z"/>
</svg>
