<?xml version="1.0" encoding="utf-8"?>
<!-- Generator: Adobe Illustrator 21.0.0, SVG Export Plug-In . SVG Version: 6.00 Build 0)  -->
<svg version="1.1" id="Capa_1" xmlns="http://www.w3.org/2000/svg" xmlns:xlink="http://www.w3.org/1999/xlink" x="0px" y="0px"
	 viewBox="0 0 64 64" style="enable-background:new 0 0 64 64;" xml:space="preserve">
<style type="text/css">
	.st0{fill:#FFFFFF;}
</style>
<g>
	<g>
		<path class="st0" d="M49.9,9.8H34.4V8.7c0-1.2-1-2.2-2.2-2.2c-1.2,0-2.2,1-2.2,2.2v1.1H14.4c-0.9,0-1.6,0.7-1.6,1.6v24.2
			c0,0.9,0.7,1.6,1.6,1.6h13.8L16.4,53.7c-0.5,0.7-0.4,1.7,0.4,2.3c0.3,0.2,0.6,0.3,0.9,0.3c0.5,0,1-0.2,1.3-0.7l11.5-16.1v15.9
			c0,0.9,0.7,1.6,1.6,1.6c0.9,0,1.6-0.7,1.6-1.6V39.5l11.5,16.1c0.3,0.4,0.8,0.7,1.3,0.7c0.3,0,0.7-0.1,0.9-0.3
			c0.7-0.5,0.9-1.5,0.4-2.3L36.2,37.2h13.8c0.9,0,1.6-0.7,1.6-1.6V11.4C51.6,10.5,50.8,9.8,49.9,9.8z M48.3,34H16.1V13h32.3L48.3,34
			L48.3,34z"/>
	</g>
</g>
</svg>
