<?xml version="1.0" encoding="utf-8"?>
<!-- Generator: Adobe Illustrator 21.0.0, SVG Export Plug-In . SVG Version: 6.00 Build 0)  -->
<svg version="1.1" id="Layer_1" xmlns="http://www.w3.org/2000/svg" xmlns:xlink="http://www.w3.org/1999/xlink" x="0px" y="0px"
	 viewBox="0 0 64 64" style="enable-background:new 0 0 64 64;" xml:space="preserve">
<style type="text/css">
	.st0{fill:#FFFFFF;}
</style>
<path class="st0" d="M57.3,19.9c-2.6-5.4-9-8.7-17-8.7c-5.1,0-10.7,1.3-15.8,3.8C10.8,21.7,3.4,34.6,7.9,44c2.6,5.4,9,8.8,17.1,8.8
	c5.1,0,10.7-1.3,15.8-3.8c6.2-3,11.4-7.5,14.6-12.5c0.3-0.5,0.4-1.2,0-1.7c-0.3-0.5-0.9-0.9-1.5-0.8c-2.6,0.1-4.6-0.7-5.4-2.2
	c-1.3-2.6,1.3-6.5,5.7-8.6c0.7-0.3,1.4-0.6,2.1-0.8c0.4-0.1,0.9-0.4,1-0.9C57.5,20.8,57.5,20.4,57.3,19.9z M18.3,28.5
	c1.7-1.5,4-1.8,5-0.5c1,1.2,0.5,3.4-1.3,4.9c-1.7,1.5-4,1.8-5,0.5C16,32.1,16.6,30,18.3,28.5z M23.7,44.4c-2.1,1-4.3,0.6-4.9-0.9
	c-0.7-1.4,0.5-3.4,2.6-4.3c2.1-1,4.3-0.6,4.9,0.9C26.8,41.6,25.7,43.5,23.7,44.4z M25.1,22.1c-0.5-1.5,0.8-3.3,2.9-4
	s4.3-0.1,4.9,1.3c0.5,1.5-0.8,3.3-2.9,4C27.7,24.1,25.6,23.5,25.1,22.1z M36.7,45.3c-2.1,0.8-4.3,0.2-4.9-1.3
	c-0.5-1.5,0.7-3.3,2.9-4c2.1-0.7,4.3-0.2,4.9,1.3C40.1,42.7,38.8,44.5,36.7,45.3z M42.3,21.4c-2.2,0.5-4.3-0.4-4.6-1.9
	c-0.4-1.5,1.2-3.2,3.4-3.7c2.2-0.5,4.3,0.4,4.6,1.9C46.1,19.3,44.5,20.9,42.3,21.4z"/>
</svg>
