<?xml version="1.0" encoding="utf-8"?>
<!-- Generator: Adobe Illustrator 21.0.0, SVG Export Plug-In . SVG Version: 6.00 Build 0)  -->
<svg version="1.1" id="Layer_1" xmlns="http://www.w3.org/2000/svg" xmlns:xlink="http://www.w3.org/1999/xlink" x="0px" y="0px"
	 viewBox="0 0 32 32" style="enable-background:new 0 0 32 32;" xml:space="preserve">
<style type="text/css">
	.st0{fill:none;}
	.st1{fill:#FFFFFF;}
</style>
<path class="st0" d="M16-32h48v48H16V-32z"/>
<path class="st1" d="M19.4,26.3h2.3V24h-2.3V26.3z M24,12.6h2.3v-2.3H24V12.6z M5.7,8V24c0,1.3,1,2.3,2.3,2.3h4.6V24H8V8h4.6V5.7H8
	C6.7,5.7,5.7,6.7,5.7,8z M24,5.7V8h2.3C26.3,6.7,25.3,5.7,24,5.7z M14.9,28.6h2.3V3.4h-2.3V28.6z M24,21.7h2.3v-2.3H24V21.7z
	 M19.4,8h2.3V5.7h-2.3V8z M24,17.1h2.3v-2.3H24V17.1z M24,26.3c1.3,0,2.3-1,2.3-2.3H24V26.3z"/>
</svg>
