<?xml version="1.0" encoding="utf-8"?>
<!-- Generator: Adobe Illustrator 21.0.0, SVG Export Plug-In . SVG Version: 6.00 Build 0)  -->
<svg version="1.1" id="Layer_1" xmlns="http://www.w3.org/2000/svg" xmlns:xlink="http://www.w3.org/1999/xlink" x="0px" y="0px"
	 viewBox="0 0 32 32" style="enable-background:new 0 0 32 32;" xml:space="preserve">
<style type="text/css">
	.st0{fill:none;}
	.st1{fill:#FFFFFF;}
</style>
<path class="st0" d="M16-32h48v48H16V-32z"/>
<path class="st1" d="M26.3,12.6v-2.3H24v2.3H26.3z M12.6,8V5.7h-2.3V8H12.6z M8,26.3H24c1.3,0,2.3-1,2.3-2.3v-4.6H24V24H8v-4.6H5.7
	V24C5.7,25.3,6.7,26.3,8,26.3z M5.7,8H8V5.7C6.7,5.7,5.7,6.7,5.7,8z M28.6,17.1v-2.3H3.4v2.3H28.6z M21.7,8V5.7h-2.3V8H21.7z
	 M8,12.6v-2.3H5.7v2.3H8z M17.1,8V5.7h-2.3V8H17.1z M26.3,8c0-1.3-1-2.3-2.3-2.3V8H26.3z"/>
</svg>
