<?xml version="1.0" encoding="utf-8"?>
<!-- Generator: Adobe Illustrator 21.0.0, SVG Export Plug-In . SVG Version: 6.00 Build 0)  -->
<svg version="1.1" id="Capa_1" xmlns="http://www.w3.org/2000/svg" xmlns:xlink="http://www.w3.org/1999/xlink" x="0px" y="0px"
	 viewBox="0 0 64 64" style="enable-background:new 0 0 64 64;" xml:space="preserve">
<g>
	<g>
		<path d="M51.8,45.3c2.3-1.8,0.5-10.4-0.6-13.3l-0.6-1.4c-0.4-1-1-1.6-1.9-2c-2.2-1-4.1-1.8-5.9-2.7c-2.2-1-4.3-1.9-6.9-3.1
			c-0.8-0.4-1.7-0.6-2.6-0.6c-2.8,0-5,1.8-6.3,2.7c0,0-10.8,8.8-13,9.4C11.8,35,9.4,35.1,8,35.1v13.3c4.6,0.1,7.8,1.5,10.4,2.6
			c0.7,0.3,1.3,0.6,1.9,0.8c1.3,0.5,3,0.7,5.1,0.7c0.8,0,1.7,0,2.6-0.1c0.2,0.2,0.4,0.5,0.6,0.6c0.5,0.4,1,0.5,1.6,0.5
			c1,0,1.9-0.7,2.4-1.4l0.1,0.3c0.2,0.6,0.5,1,1,1.4c0.5,0.4,1,0.5,1.6,0.5c2,0,3.3-2.7,3.3-2.7s0.3,2.3,1.4,3.1
			c0.5,0.3,1,0.5,1.6,0.5c0.9,0,1.6-0.4,2.2-1.1c3.1-3.8,4.3-10,4.3-10S50.5,46.3,51.8,45.3z M43.8,36.7l2.2,0.7l1.6,4.6L43.8,36.7z
			"/>
		<path d="M22.8,11c-0.2,0.2-0.3,0.5-0.4,0.9c-0.6,3,3.7,9.3,4.2,10.1c0.2,0.4,0.7,0.5,1.1,0.2c0,0,0,0,0,0c0.4-0.3,0.5-0.8,0.2-1.1
			c-1.5-2.2-3.7-5.9-4-8l5.5,8.8c1.1-0.5,2.3-0.9,3.6-0.9c1,0,2,0.3,2.9,0.7l-9-14.4c-0.2-0.4-0.7-0.5-1.1-0.3L22.6,9
			c-0.4,0.2-0.5,0.7-0.3,1.1L22.8,11z"/>
		<path d="M55.9,56.2l-2.2-7.3c0-0.1-0.1-0.1-0.1-0.2l-1.4-2.2c-0.3,0.1-0.5,0.1-0.8,0.1c-0.1,0-0.2,0-0.3,0c-0.8,0-1.5-0.2-2.1-0.5
			c-0.3,1.1-0.8,2.4-1.3,3.7l1.1,1.8c0,0.1,0.1,0.1,0.1,0.2l5.6,5.2c0.3,0.2,0.7,0.3,1,0.1C55.9,56.9,56,56.5,55.9,56.2z"/>
	</g>
</g>
</svg>
