<?xml version="1.0" encoding="utf-8"?>
<!-- Generator: Adobe Illustrator 21.0.0, SVG Export Plug-In . SVG Version: 6.00 Build 0)  -->
<svg version="1.1" id="Layer_1" xmlns="http://www.w3.org/2000/svg" xmlns:xlink="http://www.w3.org/1999/xlink" x="0px" y="0px"
	 viewBox="0 0 30 30" style="enable-background:new 0 0 30 30;" xml:space="preserve">
<g>
	<path fill="#FFFFFF" d="M22.6,13.2c0,1.4,0,2.8,0,4.2c0,0.2-0.2,0.5-0.3,0.6c-2.3,1.5-4.6,2.9-6.9,4.3c-0.2,0.1-0.5,0.1-0.7,0
		c-2.3-1.4-4.6-2.9-6.8-4.3c-0.3-0.2-0.4-0.4-0.4-0.7c0-2.8,0-5.6,0-8.3c0-0.3,0.1-0.5,0.4-0.7c2.3-1.3,4.5-2.6,6.8-3.9
		c0.2-0.1,0.6-0.1,0.8,0C17.7,5.7,20,7,22.3,8.3c0.2,0.1,0.4,0.4,0.4,0.6C22.7,10.4,22.6,11.8,22.6,13.2
		C22.6,13.2,22.6,13.2,22.6,13.2z M14.6,21.4c0-0.2,0-0.3,0-0.3c0-2.4,0-4.8,0-7.3c0-0.2-0.2-0.4-0.3-0.6c-1.9-1.2-3.8-2.4-5.6-3.6
		C8.5,9.6,8.4,9.6,8.3,9.5c0,2.5,0,4.9,0,7.4c0.2-0.1,0.4-0.2,0.5-0.3c1.1-0.6,2.2-1.1,3.3-1.7c0.2-0.1,0.5-0.3,0.7,0
		c0.2,0.4-0.1,0.5-0.4,0.6c-1.1,0.6-2.1,1.1-3.2,1.6c-0.2,0.1-0.4,0.2-0.7,0.3C10.7,18.9,12.6,20.1,14.6,21.4z M21.9,9.5
		c-0.1,0.1-0.2,0.1-0.2,0.1c-2,1.2-3.9,2.4-5.9,3.7c-0.2,0.1-0.3,0.4-0.3,0.6c0,2.3,0,4.7,0,7c0,0.1,0,0.3,0,0.5c2-1.3,4-2.5,6-3.8
		c-0.3-0.1-0.4-0.2-0.6-0.3c-1.1-0.6-2.2-1.1-3.3-1.7c-0.1,0-0.2-0.1-0.3-0.1c-0.1-0.1-0.2-0.4-0.2-0.5c0-0.1,0.3-0.2,0.5-0.2
		c0.1,0,0.3,0.1,0.4,0.2c1.1,0.6,2.3,1.1,3.4,1.7c0.2,0.1,0.3,0.1,0.5,0.2C21.9,14.4,21.9,12,21.9,9.5z M15.4,5.2c0,0.8,0,1.6,0,2.3
		c0,1,0,2,0,3c0,0.2-0.2,0.3-0.3,0.5c-0.1-0.2-0.3-0.3-0.4-0.5c-0.1-0.1,0-0.3,0-0.5c0-1.4,0-2.8,0-4.2c0-0.2,0-0.4,0-0.6
		c-2,1.2-4,2.3-6.1,3.5c0.1,0.1,0.2,0.1,0.2,0.1c2,1.2,4,2.5,6,3.7c0.1,0.1,0.5,0,0.6-0.1c1.9-1.2,3.8-2.4,5.8-3.6
		c0.1-0.1,0.2-0.1,0.3-0.2C19.5,7.6,17.5,6.4,15.4,5.2z"/>
	<path fill="#FFFFFF" d="M24.7,17.2c0.2,0.4,0.3,0.7,0.4,1c0,0.2-0.1,0.4-0.2,0.6c-0.2-0.1-0.4-0.1-0.5-0.3c-0.3-0.5-0.5-1.1-0.7-1.6
		c-0.1-0.3,0-0.6,0.4-0.6c0.7-0.1,1.4-0.3,2.1-0.4c0.2,0,0.4,0.2,0.5,0.2c-0.1,0.2-0.2,0.4-0.4,0.4c-0.3,0.1-0.5,0.1-0.9,0.2
		c0.3,0.4,0.6,0.6,0.8,1c1,1.4,1,2.9-0.1,4.2c-0.8,0.9-1.8,1.6-2.8,2c-3.1,1.4-6.5,1.8-9.9,1.6C11.2,25.4,9,25,6.9,24
		c-1.2-0.5-2.4-1.2-3.2-2.3c-0.9-1.2-1-2.5-0.1-3.8c0.6-0.9,1.5-1.6,2.5-2.1c0.1-0.1,0.4,0.1,0.6,0.1c-0.1,0.2-0.1,0.4-0.2,0.5
		c-0.5,0.4-1.1,0.7-1.6,1.2c-1.4,1.3-1.4,2.9,0,4.2C6,23,7.5,23.7,9.1,24.1c4.6,1.2,9.2,1.1,13.7-0.7c0.9-0.4,1.8-0.9,2.5-1.6
		C26.9,20.4,26.6,18.4,24.7,17.2z"/>
</g>
</svg>
