<?xml version="1.0" encoding="utf-8"?>
<!-- Generator: Adobe Illustrator 21.0.0, SVG Export Plug-In . SVG Version: 6.00 Build 0)  -->
<svg version="1.1" id="Layer_1" xmlns="http://www.w3.org/2000/svg" xmlns:xlink="http://www.w3.org/1999/xlink" x="0px" y="0px"
	 viewBox="0 0 64 64" style="enable-background:new 0 0 64 64;" xml:space="preserve">
<style type="text/css">
	.st0{fill:#FFFFFF;}
</style>
<g>
	<path class="st0" d="M53.3,34.9H39.1v-3.3c0-0.5-0.4-0.9-0.9-0.9h-2.7v-5.3c3.2-1.4,5.5-4.5,5.5-8.2c0-4.9-4-8.9-8.9-8.9
		c-4.9,0-8.9,4-8.9,8.9c0,3.7,2.2,6.8,5.5,8.2v5.3H26c-0.5,0-0.9,0.4-0.9,0.9v3.3H10.7c-0.5,0-0.9,0.4-0.9,0.9v13.9
		c0,0.5,0.4,0.9,0.9,0.9h42.5c0.5,0,0.9-0.4,0.9-0.9V35.8C54.2,35.3,53.7,34.9,53.3,34.9z M27.6,14.4c0-1.3,1-2.3,2.3-2.3
		c1.3,0,2.4,1.1,2.4,2.3c0,1.3-1,2.3-2.3,2.3S27.6,15.7,27.6,14.4z M26.7,32.5h10.6v2.4H26.7V32.5z M52.3,48.7H11.6v-12h40.7
		C52.4,36.7,52.4,48.7,52.3,48.7z"/>
	<path class="st0" d="M13.2,54.7c0,0.5,0.4,0.9,0.9,0.9h35.9c0.5,0,0.9-0.4,0.9-0.9V52H13.2V54.7z"/>
</g>
</svg>
